<svg width="30" height="30" viewBox="0 0 30 30" fill="none" xmlns="http://www.w3.org/2000/svg">
<path d="M2.25 6H27.75C28.3467 6 28.919 5.68393 29.341 5.12132C29.7629 4.55871 30 3.79565 30 3C30 2.20435 29.7629 1.44129 29.341 0.878679C28.919 0.31607 28.3467 0 27.75 0H2.25C1.65326 0 1.08097 0.31607 0.65901 0.878679C0.237053 1.44129 0 2.20435 0 3C0 3.79565 0.237053 4.55871 0.65901 5.12132C1.08097 5.68393 1.65326 6 2.25 6ZM27.75 12H2.25C1.65326 12 1.08097 12.3161 0.65901 12.8787C0.237053 13.4413 0 14.2044 0 15C0 15.7956 0.237053 16.5587 0.65901 17.1213C1.08097 17.6839 1.65326 18 2.25 18H27.75C28.3467 18 28.919 17.6839 29.341 17.1213C29.7629 16.5587 30 15.7956 30 15C30 14.2044 29.7629 13.4413 29.341 12.8787C28.919 12.3161 28.3467 12 27.75 12ZM27.75 24H2.25C1.65326 24 1.08097 24.3161 0.65901 24.8787C0.237053 25.4413 0 26.2044 0 27C0 27.7956 0.237053 28.5587 0.65901 29.1213C1.08097 29.6839 1.65326 30 2.25 30H27.75C28.3467 30 28.919 29.6839 29.341 29.1213C29.7629 28.5587 30 27.7956 30 27C30 26.2044 29.7629 25.4413 29.341 24.8787C28.919 24.3161 28.3467 24 27.75 24Z" fill="#131418"/>
</svg>